<?xml version="1.0" encoding="utf-8"?>
<!-- Generator: Adobe Illustrator 19.0.0, SVG Export Plug-In . SVG Version: 6.00 Build 0)  -->
<svg version="1.1" xmlns="http://www.w3.org/2000/svg" xmlns:xlink="http://www.w3.org/1999/xlink" x="0px" y="0px"
	 viewBox="0 0 2000 2000" style="enable-background:new 0 0 2000 2000;" xml:space="preserve">
<style type="text/css">
	.st0{display:none;}
	.st1{display:inline;}
	.st2{fill:#003285;}
	.st3{fill:#FF5E0E;}
</style>
<g id="Layer_1">
</g>
<g id="Layer_7" class="st0">
	<g id="XMLID_2450_" class="st1">
		<g id="XMLID_2474_">
			<path id="XMLID_2477_" class="st2" d="M1081.5,594.1H971v96.8h98.4c60.3,0,109.2,48.9,109.2,109.2v345.7h96.7V787.9
				C1275.3,680.9,1188.6,594.1,1081.5,594.1z"/>
			<path id="XMLID_2476_" class="st2" d="M941.6,943.5V687.8h-96.8v264.1c0,107,86.8,193.8,193.8,193.8h8.4v-96.7h0
				C988.8,1048.9,941.6,1001.7,941.6,943.5z"/>
			<polygon id="XMLID_2475_" class="st3" points="844.9,475 844.9,594.4 725.5,594.4 725.5,691.1 844.9,691.1 844.9,691.2 
				941.6,691.2 941.6,691.1 941.6,594.4 941.6,475 			"/>
		</g>
		<g id="XMLID_2451_">
			<g id="XMLID_2452_">
				<path id="XMLID_2472_" class="st2" d="M300.7,1261.9h-84.5v260.9h-42.3v-260.9H89.4v-41h211.3V1261.9z"/>
				<path id="XMLID_2469_" class="st2" d="M280.2,1359.5c9.6-17.1,22.9-30.7,39.7-40.8c16.8-10.1,35.3-15.1,55.4-15.1
					c18.7,0,36.4,4.4,53.3,13.2c16.8,8.8,30.5,21.3,41.2,37.5c10.6,16.2,16.2,35.1,16.8,56.7c0,7.2-0.4,13.7-1.3,19.4H311
					c1.7,16.1,8.5,29.3,20.5,39.5c11.9,10.2,26.5,15.3,43.8,15.3c21.3,0,38.5-7.2,51.8-21.6l50.5,0.4c-9.5,18.7-23.3,33.7-41.4,45.1
					c-18.1,11.4-37.9,17-59.5,17c-20.4,0-39.1-5-56.1-14.9c-17-9.9-30.3-23.4-40.1-40.3c-9.8-17-14.7-35.5-14.7-55.6
					C265.8,1395.3,270.6,1376.6,280.2,1359.5z M441.3,1396c-4-14.9-12-27.2-23.9-36.9c-11.9-9.6-25.5-14.4-40.8-14.4
					c-16.4,0-30.4,4.7-42,14.2c-11.6,9.5-19.5,21.9-23.5,37.1H441.3z"/>
				<path id="XMLID_2467_" class="st2" d="M563.5,1511.3c-17.1-9.9-30.6-23.4-40.5-40.5c-9.9-17.1-14.9-35.7-14.9-55.8
					c0-20.1,5-38.7,14.9-55.8c9.9-17.1,23.4-30.6,40.5-40.5c17.1-9.9,35.7-14.9,55.8-14.9c23.3,0,44.3,6.6,63,19.8
					c18.7,13.2,31.9,30.3,39.7,51.3h-45.3c-6.3-9.2-14.4-16.5-24.1-22c-9.8-5.5-20.7-8.2-32.8-8.2c-12.9,0-24.7,3.1-35.4,9.3
					c-10.6,6.2-19,14.7-25,25.4c-6,10.8-9.1,22.6-9.1,35.6c0,12.9,3.1,24.8,9.3,35.6c6.2,10.8,14.5,19.3,25,25.4
					c10.5,6.2,22.2,9.3,35.1,9.3c11.8,0,22.5-2.6,32.1-7.8c9.6-5.2,17.6-12.4,23.9-21.6H722c-7.8,21-21,38-39.7,50.9
					c-18.7,12.9-39.7,19.4-63,19.4C599.3,1526.2,580.6,1521.3,563.5,1511.3z"/>
				<path id="XMLID_2465_" class="st2" d="M910.1,1330.2c17.2,17.7,25.9,44.1,25.9,79.1v113.4h-42.3v-113.4
					c0-21.6-4.5-37.7-13.6-48.5c-9.1-10.8-22.1-16.2-39-16.2c-17,0-30,5.3-39,16c-9.1,10.6-13.6,26.6-13.6,47.9v114.3h-42.3v-301.9
					h42.3v105.7c6.6-8.3,14.2-14.2,22.9-17.7c8.6-3.4,18.5-5.2,29.8-5.2C869.8,1303.7,892.8,1312.5,910.1,1330.2z"/>
				<path id="XMLID_2462_" class="st2" d="M1126.8,1318.6c17.1,9.9,30.6,23.4,40.5,40.5c9.9,17.1,14.9,35.7,14.9,55.8
					c0,20.1-5,38.7-14.9,55.8c-9.9,17.1-23.4,30.6-40.5,40.5c-17.1,9.9-35.7,14.9-55.8,14.9c-20.1,0-38.7-5-55.8-14.9
					c-17.1-9.9-30.6-23.4-40.5-40.5c-9.9-17.1-14.9-35.7-14.9-55.8c0-20.1,5-38.7,14.9-55.8c9.9-17.1,23.4-30.6,40.5-40.5
					c17.1-9.9,35.7-14.9,55.8-14.9C1091,1303.7,1109.7,1308.6,1126.8,1318.6z M1036,1353.9c-10.6,6.2-19,14.7-25,25.4
					c-6,10.8-9.1,22.6-9.1,35.6c0,12.9,3.1,24.8,9.3,35.6c6.2,10.8,14.5,19.3,25,25.4c10.5,6.2,22.2,9.3,35.1,9.3
					c12.9,0,24.6-3.1,34.9-9.3c10.4-6.2,18.5-14.7,24.6-25.4c6-10.8,9.1-22.6,9.1-35.6c0-12.9-3-24.8-8.8-35.6
					c-5.9-10.8-14.1-19.3-24.6-25.4c-10.5-6.2-22.2-9.3-35.1-9.3C1058.4,1344.7,1046.6,1347.7,1036,1353.9z"/>
				<path id="XMLID_2460_" class="st2" d="M1205.9,1410.2c0-34.5,8.3-60.4,24.8-77.8c16.5-17.4,38.4-26.1,65.8-26.1h4.3v41h-4.3
					c-15.5,0-27.5,5.2-35.8,15.5c-8.3,10.4-12.5,26.2-12.5,47.4v112.6h-42.3V1410.2z"/>
				<path id="XMLID_2458_" class="st2" d="M1356.2,1518.2c-12.8-5.3-23.1-13.2-30.8-23.5c-7.8-10.4-11.6-22.6-11.6-36.7h40.5
					c0,9.2,4.2,16.5,12.7,22c8.5,5.5,19.2,8.2,32.1,8.2c13.2,0,23.4-2.6,30.6-7.8c7.2-5.2,10.8-12.1,10.8-20.7
					c0-9.5-4-16.2-12.1-20.3c-8.1-4-20.6-7.9-37.5-11.6c-15.5-3.4-28.2-7-38-10.6c-9.8-3.6-18.2-9.6-25.2-18.1
					c-7-8.5-10.6-20.1-10.6-34.7c0-11.8,3.5-22.3,10.6-31.5c7-9.2,16.7-16.4,28.9-21.6c12.2-5.2,25.7-7.8,40.3-7.8
					c23,0,41.9,5.8,56.7,17.2c14.8,11.5,22.2,27.3,22.2,47.4h-40.5c0-8-3.8-14.6-11.4-19.6c-7.6-5-16.9-7.5-27.8-7.5
					c-10.6,0-19.4,2.4-26.3,7.3c-6.9,4.9-10.4,11.2-10.4,19c0,8.1,3.7,13.9,11.2,17.5c7.5,3.6,19.3,7.3,35.4,11
					c15.8,3.4,28.9,7.1,39.2,10.8c10.4,3.7,19.2,10,26.5,18.8c7.3,8.8,11,20.8,11,36c0,21-7.8,37-23.5,48.1
					c-15.7,11.1-36,16.6-61,16.6C1383,1526.2,1369,1523.6,1356.2,1518.2z"/>
				<path id="XMLID_2455_" class="st2" d="M1516.6,1359.5c9.6-17.1,22.9-30.7,39.7-40.8c16.8-10.1,35.3-15.1,55.4-15.1
					c18.7,0,36.4,4.4,53.3,13.2c16.8,8.8,30.5,21.3,41.2,37.5c10.6,16.2,16.2,35.1,16.8,56.7c0,7.2-0.4,13.7-1.3,19.4h-174.2
					c1.7,16.1,8.5,29.3,20.5,39.5c11.9,10.2,26.5,15.3,43.8,15.3c21.3,0,38.5-7.2,51.8-21.6l50.5,0.4c-9.5,18.7-23.3,33.7-41.4,45.1
					c-18.1,11.4-37.9,17-59.5,17c-20.4,0-39.1-5-56.1-14.9c-17-9.9-30.3-23.4-40.1-40.3c-9.8-17-14.7-35.5-14.7-55.6
					C1502.2,1395.3,1507,1376.6,1516.6,1359.5z M1677.7,1396c-4-14.9-12-27.2-23.9-36.9c-11.9-9.6-25.5-14.4-40.8-14.4
					c-16.4,0-30.4,4.7-42,14.2c-11.6,9.5-19.5,21.9-23.5,37.1H1677.7z"/>
				<path id="XMLID_2453_" class="st2" d="M1784.9,1518.2c-12.8-5.3-23.1-13.2-30.8-23.5c-7.8-10.4-11.6-22.6-11.6-36.7h40.5
					c0,9.2,4.2,16.5,12.7,22c8.5,5.5,19.2,8.2,32.1,8.2c13.2,0,23.4-2.6,30.6-7.8c7.2-5.2,10.8-12.1,10.8-20.7
					c0-9.5-4-16.2-12.1-20.3c-8.1-4-20.6-7.9-37.5-11.6c-15.5-3.4-28.2-7-38-10.6c-9.8-3.6-18.2-9.6-25.2-18.1
					c-7-8.5-10.6-20.1-10.6-34.7c0-11.8,3.5-22.3,10.6-31.5c7-9.2,16.7-16.4,28.9-21.6c12.2-5.2,25.7-7.8,40.3-7.8
					c23,0,41.9,5.8,56.7,17.2c14.8,11.5,22.2,27.3,22.2,47.4H1864c0-8-3.8-14.6-11.4-19.6c-7.6-5-16.9-7.5-27.8-7.5
					c-10.6,0-19.4,2.4-26.3,7.3c-6.9,4.9-10.4,11.2-10.4,19c0,8.1,3.7,13.9,11.2,17.5c7.5,3.6,19.3,7.3,35.4,11
					c15.8,3.4,28.9,7.1,39.2,10.8c10.4,3.7,19.2,10,26.5,18.8c7.3,8.8,11,20.8,11,36c0,21-7.8,37-23.5,48.1
					c-15.7,11.1-36,16.6-61,16.6C1811.7,1526.2,1797.6,1523.6,1784.9,1518.2z"/>
			</g>
		</g>
	</g>
</g>
<g id="Layer_6" class="st0">
	<g id="XMLID_2616_" class="st1">
		<path id="XMLID_2636_" class="st2" d="M295.5,887.4h-85.1v262.8h-42.6V887.4H82.6v-41.3h212.9V887.4z"/>
		<path id="XMLID_2633_" class="st2" d="M274.9,985.8c9.7-17.2,23-30.9,40-41.1c16.9-10.1,35.5-15.2,55.8-15.2
			c18.8,0,36.7,4.4,53.7,13.2c16.9,8.8,30.8,21.4,41.5,37.8c10.7,16.4,16.4,35.4,16.9,57.1c0,7.2-0.4,13.8-1.3,19.5H306
			c1.7,16.2,8.6,29.5,20.6,39.8c12,10.3,26.7,15.4,44.1,15.4c21.4,0,38.8-7.2,52.1-21.7l50.8,0.4c-9.6,18.8-23.5,34-41.7,45.4
			c-18.2,11.4-38.2,17.2-60,17.2c-20.6,0-39.4-5-56.5-15c-17.1-10-30.6-23.5-40.4-40.6c-9.9-17.1-14.8-35.8-14.8-56
			C260.3,1021.8,265.2,1003.1,274.9,985.8z M437.2,1022.5c-4.1-15.1-12.1-27.4-24.1-37.1c-12-9.7-25.7-14.6-41.1-14.6
			c-16.5,0-30.6,4.8-42.4,14.3c-11.7,9.6-19.6,22-23.7,37.4H437.2z"/>
		<path id="XMLID_2631_" class="st2" d="M560.3,1138.8c-17.2-10-30.8-23.6-40.8-40.8c-10-17.2-15-36-15-56.3c0-20.3,5-39,15-56.3
			c10-17.2,23.6-30.8,40.8-40.8c17.2-10,36-15,56.3-15c23.5,0,44.6,6.7,63.4,20c18.8,13.3,32.1,30.6,40,51.7h-45.6
			c-6.4-9.3-14.5-16.7-24.3-22.2c-9.8-5.5-20.9-8.3-33-8.3c-13,0-24.9,3.1-35.6,9.3c-10.7,6.2-19.1,14.8-25.2,25.6
			c-6.1,10.9-9.1,22.8-9.1,35.8c0,13,3.1,25,9.3,35.8c6.2,10.9,14.6,19.4,25.2,25.6c10.6,6.2,22.4,9.3,35.4,9.3
			c11.9,0,22.7-2.6,32.4-7.8c9.7-5.2,17.7-12.5,24.1-21.7H720c-7.8,21.1-21.1,38.2-40,51.3c-18.8,13-40,19.5-63.4,19.5
			C596.3,1153.7,577.5,1148.7,560.3,1138.8z"/>
		<path id="XMLID_2629_" class="st2" d="M909.4,956.3c17.4,17.8,26.1,44.4,26.1,79.7v114.3h-42.6V1036c0-21.7-4.6-38-13.7-48.9
			c-9.1-10.9-22.2-16.3-39.3-16.3c-17.1,0-30.2,5.4-39.3,16.1c-9.1,10.7-13.7,26.8-13.7,48.2v115.1h-42.6V846.2h42.6v106.4
			c6.7-8.4,14.3-14.3,23-17.8c8.7-3.5,18.7-5.2,30-5.2C868.8,929.6,892,938.5,909.4,956.3z"/>
		<path id="XMLID_2626_" class="st2" d="M1127.7,944.6c17.2,10,30.8,23.6,40.8,40.8c10,17.2,15,36,15,56.3c0,20.3-5,39-15,56.3
			c-10,17.2-23.6,30.8-40.8,40.8c-17.2,10-36,15-56.3,15c-20.3,0-39-5-56.3-15c-17.2-10-30.8-23.6-40.8-40.8c-10-17.2-15-36-15-56.3
			c0-20.3,5-39,15-56.3c10-17.2,23.6-30.8,40.8-40.8c17.2-10,36-15,56.3-15C1091.7,929.6,1110.5,934.6,1127.7,944.6z M1036.2,980.2
			c-10.7,6.2-19.1,14.8-25.2,25.6c-6.1,10.9-9.1,22.8-9.1,35.8c0,13,3.1,25,9.3,35.8c6.2,10.9,14.6,19.4,25.2,25.6
			c10.6,6.2,22.4,9.3,35.4,9.3c13,0,24.8-3.1,35.2-9.3c10.4-6.2,18.7-14.8,24.8-25.6c6.1-10.9,9.1-22.8,9.1-35.8c0-13-3-25-8.9-35.8
			c-5.9-10.9-14.2-19.4-24.8-25.6c-10.6-6.2-22.4-9.3-35.4-9.3C1058.8,970.8,1047,974,1036.2,980.2z"/>
		<path id="XMLID_2624_" class="st2" d="M1207.4,1036.9c0-34.8,8.3-60.9,25-78.4c16.7-17.5,38.7-26.3,66.3-26.3h4.3v41.3h-4.3
			c-15.6,0-27.7,5.2-36.1,15.6c-8.4,10.4-12.6,26.4-12.6,47.8v113.4h-42.6V1036.9z"/>
		<path id="XMLID_2622_" class="st2" d="M1358.8,1145.7c-12.9-5.4-23.2-13.2-31.1-23.7c-7.8-10.4-11.7-22.7-11.7-36.9h40.8
			c0,9.3,4.3,16.7,12.8,22.2c8.5,5.5,19.3,8.3,32.4,8.3c13.3,0,23.6-2.6,30.8-7.8c7.2-5.2,10.9-12.2,10.9-20.9
			c0-9.6-4.1-16.4-12.2-20.4c-8.1-4.1-20.7-8-37.8-11.7c-15.6-3.5-28.4-7-38.2-10.6c-9.8-3.6-18.3-9.7-25.4-18.2
			c-7.1-8.5-10.6-20.2-10.6-35c0-11.9,3.5-22.4,10.6-31.7c7.1-9.3,16.8-16.5,29.1-21.7c12.3-5.2,25.9-7.8,40.6-7.8
			c23.2,0,42.2,5.8,57.1,17.4c14.9,11.6,22.4,27.5,22.4,47.8h-40.8c0-8.1-3.8-14.7-11.5-19.8c-7.7-5.1-17-7.6-28-7.6
			c-10.7,0-19.5,2.5-26.5,7.4c-6.9,4.9-10.4,11.3-10.4,19.1c0,8.1,3.8,14,11.3,17.6c7.5,3.6,19.4,7.3,35.6,11.1
			c15.9,3.5,29.1,7.1,39.5,10.9c10.4,3.8,19.3,10.1,26.7,18.9c7.4,8.8,11.1,20.9,11.1,36.3c0,21.1-7.9,37.3-23.7,48.4
			c-15.8,11.2-36.3,16.7-61.5,16.7C1385.8,1153.7,1371.7,1151.1,1358.8,1145.7z"/>
		<path id="XMLID_2619_" class="st2" d="M1520.4,985.8c9.7-17.2,23-30.9,40-41.1c16.9-10.1,35.5-15.2,55.8-15.2
			c18.8,0,36.7,4.4,53.7,13.2c16.9,8.8,30.8,21.4,41.5,37.8c10.7,16.4,16.4,35.4,16.9,57.1c0,7.2-0.4,13.8-1.3,19.5h-175.5
			c1.7,16.2,8.6,29.5,20.6,39.8c12,10.3,26.7,15.4,44.1,15.4c21.4,0,38.8-7.2,52.1-21.7l50.8,0.4c-9.6,18.8-23.5,34-41.7,45.4
			c-18.2,11.4-38.2,17.2-60,17.2c-20.6,0-39.4-5-56.5-15c-17.1-10-30.6-23.5-40.4-40.6c-9.9-17.1-14.8-35.8-14.8-56
			C1505.9,1021.8,1510.7,1003.1,1520.4,985.8z M1682.7,1022.5c-4.1-15.1-12.1-27.4-24.1-37.1c-12-9.7-25.7-14.6-41.1-14.6
			c-16.5,0-30.6,4.8-42.4,14.3c-11.7,9.6-19.6,22-23.7,37.4H1682.7z"/>
		<path id="XMLID_2617_" class="st2" d="M1790.6,1145.7c-12.9-5.4-23.2-13.2-31.1-23.7c-7.8-10.4-11.7-22.7-11.7-36.9h40.8
			c0,9.3,4.3,16.7,12.8,22.2c8.5,5.5,19.3,8.3,32.4,8.3c13.3,0,23.6-2.6,30.8-7.8c7.2-5.2,10.9-12.2,10.9-20.9
			c0-9.6-4.1-16.4-12.2-20.4c-8.1-4.1-20.7-8-37.8-11.7c-15.6-3.5-28.4-7-38.2-10.6c-9.8-3.6-18.3-9.7-25.4-18.2
			c-7.1-8.5-10.6-20.2-10.6-35c0-11.9,3.5-22.4,10.6-31.7c7.1-9.3,16.8-16.5,29.1-21.7c12.3-5.2,25.9-7.8,40.6-7.8
			c23.2,0,42.2,5.8,57.1,17.4c14.9,11.6,22.4,27.5,22.4,47.8h-40.8c0-8.1-3.8-14.7-11.5-19.8c-7.7-5.1-17-7.6-28-7.6
			c-10.7,0-19.5,2.5-26.5,7.4c-6.9,4.9-10.4,11.3-10.4,19.1c0,8.1,3.8,14,11.3,17.6c7.5,3.6,19.4,7.3,35.6,11.1
			c15.9,3.5,29.1,7.1,39.5,10.9c10.4,3.8,19.3,10.1,26.7,18.9c7.4,8.8,11.1,20.9,11.1,36.3c0,21.1-7.9,37.3-23.7,48.4
			c-15.8,11.2-36.3,16.7-61.5,16.7C1817.7,1153.7,1803.5,1151.1,1790.6,1145.7z"/>
	</g>
</g>
<g id="Layer_5" class="st0">
	<g id="XMLID_2478_" class="st1">
		<g id="XMLID_2541_">
			<path id="XMLID_2544_" class="st2" d="M1081.4,534.3H970.5v97.1h98.8c60.5,0,109.6,49.1,109.6,109.6v347h97.1V728.9
				C1276,621.4,1188.9,534.3,1081.4,534.3z"/>
			<path id="XMLID_2543_" class="st2" d="M941,885V628.4h-97.1v265.1c0,107.5,87.1,194.6,194.6,194.6h8.5v-97.1h0
				C988.4,990.9,941,943.5,941,885z"/>
			<polygon id="XMLID_2542_" class="st3" points="843.8,414.8 843.8,534.6 724,534.6 724,631.7 843.8,631.7 843.8,631.8 941,631.8 
				941,631.7 941,534.6 941,414.8 			"/>
		</g>
		<g id="XMLID_2479_">
			<g id="XMLID_2519_">
				<path id="XMLID_2539_" class="st2" d="M297.5,1204.7h-84.9v261.9h-42.4v-261.9H85.4v-41.1h212.1V1204.7z"/>
				<path id="XMLID_2536_" class="st2" d="M277,1302.7c9.7-17.2,22.9-30.8,39.8-40.9c16.9-10.1,35.4-15.2,55.6-15.2
					c18.8,0,36.6,4.4,53.5,13.2c16.9,8.8,30.7,21.4,41.3,37.7c10.7,16.3,16.3,35.3,16.9,56.9c0,7.2-0.4,13.7-1.3,19.5H307.9
					c1.7,16.2,8.6,29.4,20.6,39.6c12,10.2,26.6,15.4,43.9,15.4c21.4,0,38.7-7.2,52-21.6l50.7,0.4c-9.5,18.8-23.4,33.8-41.6,45.2
					c-18.2,11.4-38.1,17.1-59.7,17.1c-20.5,0-39.3-5-56.3-14.9c-17-10-30.5-23.4-40.3-40.5c-9.8-17-14.7-35.6-14.7-55.9
					C262.5,1338.6,267.3,1319.9,277,1302.7z M438.7,1339.3c-4-15-12.1-27.3-24-37c-12-9.7-25.6-14.5-40.9-14.5
					c-16.5,0-30.5,4.8-42.2,14.3c-11.7,9.5-19.6,21.9-23.6,37.2H438.7z"/>
				<path id="XMLID_2534_" class="st2" d="M561.4,1455.1c-17.2-10-30.7-23.5-40.7-40.7c-10-17.2-14.9-35.9-14.9-56.1
					c0-20.2,5-38.9,14.9-56.1c10-17.2,23.5-30.7,40.7-40.7c17.2-10,35.9-14.9,56.1-14.9c23.4,0,44.4,6.6,63.2,19.9
					c18.8,13.3,32,30.5,39.8,51.5h-45.5c-6.4-9.2-14.4-16.6-24.2-22.1c-9.8-5.5-20.8-8.2-32.9-8.2c-13,0-24.8,3.1-35.5,9.3
					c-10.7,6.2-19.1,14.7-25.1,25.5c-6.1,10.8-9.1,22.7-9.1,35.7c0,13,3.1,24.9,9.3,35.7c6.2,10.8,14.6,19.3,25.1,25.5
					c10.5,6.2,22.3,9.3,35.3,9.3c11.8,0,22.6-2.6,32.3-7.8c9.7-5.2,17.7-12.4,24-21.6h46.3c-7.8,21.1-21.1,38.1-39.8,51.1
					c-18.8,13-39.8,19.5-63.2,19.5C597.3,1470.1,578.6,1465.1,561.4,1455.1z"/>
				<path id="XMLID_2532_" class="st2" d="M909.3,1273.3c17.3,17.7,26,44.2,26,79.4v113.9h-42.4v-113.9c0-21.6-4.5-37.9-13.6-48.7
					c-9.1-10.8-22.2-16.2-39.2-16.2c-17,0-30.1,5.3-39.2,16c-9.1,10.7-13.6,26.7-13.6,48.1v114.7h-42.4v-303.1h42.4v106.1
					c6.6-8.4,14.3-14.3,22.9-17.8c8.7-3.5,18.6-5.2,29.9-5.2C868.9,1246.7,892,1255.6,909.3,1273.3z"/>
				<path id="XMLID_2529_" class="st2" d="M1126.9,1261.6c17.2,10,30.7,23.5,40.7,40.7c10,17.2,14.9,35.9,14.9,56.1
					c0,20.2-5,38.9-14.9,56.1c-10,17.2-23.5,30.7-40.7,40.7c-17.2,10-35.9,14.9-56.1,14.9c-20.2,0-38.9-5-56.1-14.9
					c-17.2-10-30.7-23.5-40.7-40.7c-10-17.2-14.9-35.9-14.9-56.1c0-20.2,5-38.9,14.9-56.1c10-17.2,23.5-30.7,40.7-40.7
					c17.2-10,35.9-14.9,56.1-14.9C1091,1246.7,1109.7,1251.7,1126.9,1261.6z M1035.7,1297.1c-10.7,6.2-19.1,14.7-25.1,25.5
					c-6.1,10.8-9.1,22.7-9.1,35.7c0,13,3.1,24.9,9.3,35.7c6.2,10.8,14.6,19.3,25.1,25.5c10.5,6.2,22.3,9.3,35.3,9.3
					c13,0,24.7-3.1,35.1-9.3c10.4-6.2,18.6-14.7,24.7-25.5c6.1-10.8,9.1-22.7,9.1-35.7c0-13-3-24.9-8.9-35.7
					c-5.9-10.8-14.1-19.3-24.7-25.5c-10.5-6.2-22.3-9.3-35.3-9.3C1058.2,1287.8,1046.4,1290.9,1035.7,1297.1z"/>
				<path id="XMLID_2527_" class="st2" d="M1206.3,1353.6c0-34.6,8.3-60.7,24.9-78.1c16.6-17.5,38.6-26.2,66-26.2h4.3v41.1h-4.3
					c-15.6,0-27.6,5.2-35.9,15.6c-8.4,10.4-12.6,26.3-12.6,47.6v113h-42.4V1353.6z"/>
				<path id="XMLID_2525_" class="st2" d="M1357.2,1462.1c-12.8-5.3-23.2-13.2-31-23.6c-7.8-10.4-11.7-22.7-11.7-36.8h40.7
					c0,9.2,4.3,16.6,12.8,22.1c8.5,5.5,19.3,8.2,32.3,8.2c13.3,0,23.5-2.6,30.7-7.8c7.2-5.2,10.8-12.1,10.8-20.8
					c0-9.5-4-16.3-12.1-20.3c-8.1-4-20.6-7.9-37.7-11.7c-15.6-3.5-28.3-7-38.1-10.6c-9.8-3.6-18.3-9.7-25.3-18.2
					c-7.1-8.5-10.6-20.1-10.6-34.9c0-11.8,3.5-22.4,10.6-31.6c7.1-9.2,16.7-16.5,29-21.6c12.3-5.2,25.8-7.8,40.5-7.8
					c23.1,0,42.1,5.8,56.9,17.3c14.9,11.5,22.3,27.4,22.3,47.6h-40.7c0-8.1-3.8-14.6-11.5-19.7c-7.7-5-17-7.6-27.9-7.6
					c-10.7,0-19.5,2.5-26.4,7.4c-6.9,4.9-10.4,11.3-10.4,19c0,8.1,3.7,13.9,11.3,17.5c7.5,3.6,19.3,7.3,35.5,11
					c15.9,3.5,29,7.1,39.4,10.8c10.4,3.8,19.3,10,26.6,18.8c7.4,8.8,11,20.9,11,36.2c0,21.1-7.9,37.2-23.6,48.3
					c-15.7,11.1-36.2,16.7-61.3,16.7C1384.1,1470.1,1370,1467.4,1357.2,1462.1z"/>
				<path id="XMLID_2522_" class="st2" d="M1518.2,1302.7c9.7-17.2,22.9-30.8,39.8-40.9c16.9-10.1,35.4-15.2,55.6-15.2
					c18.8,0,36.6,4.4,53.5,13.2c16.9,8.8,30.7,21.4,41.3,37.7c10.7,16.3,16.3,35.3,16.9,56.9c0,7.2-0.4,13.7-1.3,19.5h-174.9
					c1.7,16.2,8.6,29.4,20.6,39.6c12,10.2,26.6,15.4,43.9,15.4c21.4,0,38.7-7.2,52-21.6l50.7,0.4c-9.5,18.8-23.4,33.8-41.6,45.2
					c-18.2,11.4-38.1,17.1-59.7,17.1c-20.5,0-39.3-5-56.3-14.9c-17-10-30.5-23.4-40.3-40.5c-9.8-17-14.7-35.6-14.7-55.9
					C1503.7,1338.6,1508.6,1319.9,1518.2,1302.7z M1679.9,1339.3c-4-15-12.1-27.3-24-37c-12-9.7-25.6-14.5-40.9-14.5
					c-16.5,0-30.5,4.8-42.2,14.3c-11.7,9.5-19.6,21.9-23.6,37.2H1679.9z"/>
				<path id="XMLID_2520_" class="st2" d="M1787.5,1462.1c-12.8-5.3-23.2-13.2-31-23.6s-11.7-22.7-11.7-36.8h40.7
					c0,9.2,4.3,16.6,12.8,22.1c8.5,5.5,19.3,8.2,32.3,8.2c13.3,0,23.5-2.6,30.7-7.8c7.2-5.2,10.8-12.1,10.8-20.8
					c0-9.5-4-16.3-12.1-20.3c-8.1-4-20.6-7.9-37.7-11.7c-15.6-3.5-28.3-7-38.1-10.6c-9.8-3.6-18.3-9.7-25.3-18.2
					c-7.1-8.5-10.6-20.1-10.6-34.9c0-11.8,3.5-22.4,10.6-31.6c7.1-9.2,16.7-16.5,29-21.6c12.3-5.2,25.8-7.8,40.5-7.8
					c23.1,0,42.1,5.8,56.9,17.3c14.9,11.5,22.3,27.4,22.3,47.6H1867c0-8.1-3.8-14.6-11.5-19.7c-7.7-5-17-7.6-27.9-7.6
					c-10.7,0-19.5,2.5-26.4,7.4c-6.9,4.9-10.4,11.3-10.4,19c0,8.1,3.7,13.9,11.3,17.5c7.5,3.6,19.3,7.3,35.5,11
					c15.9,3.5,29,7.1,39.4,10.8c10.4,3.8,19.3,10,26.6,18.8c7.4,8.8,11,20.9,11,36.2c0,21.1-7.9,37.2-23.6,48.3
					c-15.7,11.1-36.2,16.7-61.3,16.7C1814.4,1470.1,1800.4,1467.4,1787.5,1462.1z"/>
			</g>
			<g id="XMLID_2480_">
				<path id="XMLID_2516_" class="st2" d="M170.2,1584.1V1517h28.5c7.2,0,12.4,0.6,15.6,1.8c3.3,1.2,5.9,3.3,7.8,6.4
					c1.9,3.1,2.9,6.6,2.9,10.6c0,5-1.5,9.2-4.4,12.5c-3,3.3-7.4,5.3-13.3,6.2c2.9,1.7,5.3,3.6,7.3,5.6c1.9,2,4.5,5.7,7.7,10.9
					l8.2,13.1h-16.2l-9.8-14.6c-3.5-5.2-5.9-8.5-7.1-9.9c-1.3-1.4-2.6-2.3-4.1-2.8s-3.7-0.8-6.8-0.8h-2.7v28H170.2z M183.8,1545.4
					h10c6.5,0,10.6-0.3,12.2-0.8c1.6-0.5,2.9-1.5,3.8-2.8c0.9-1.3,1.4-3,1.4-5c0-2.3-0.6-4.1-1.8-5.5c-1.2-1.4-2.9-2.3-5.1-2.6
					c-1.1-0.2-4.4-0.2-9.9-0.2h-10.6V1545.4z"/>
				<path id="XMLID_2514_" class="st2" d="M272.6,1584.1V1517h13.6v67.1H272.6z"/>
				<path id="XMLID_2511_" class="st2" d="M334.2,1517H359c5.6,0,9.8,0.4,12.8,1.3c3.9,1.2,7.3,3.2,10.1,6.2c2.8,3,4.9,6.6,6.4,10.9
					c1.5,4.3,2.2,9.6,2.2,15.9c0,5.5-0.7,10.3-2.1,14.3c-1.7,4.9-4.1,8.8-7.2,11.9c-2.4,2.3-5.5,4.1-9.5,5.4c-3,0.9-7,1.4-12,1.4
					h-25.5V1517z M347.8,1528.3v44.4h10.1c3.8,0,6.5-0.2,8.2-0.6c2.2-0.5,4-1.5,5.5-2.8c1.4-1.3,2.6-3.5,3.5-6.5
					c0.9-3,1.4-7.1,1.4-12.3c0-5.2-0.5-9.2-1.4-11.9c-0.9-2.8-2.2-4.9-3.8-6.5c-1.6-1.6-3.7-2.6-6.3-3.2c-1.9-0.4-5.6-0.6-11.1-0.6
					H347.8z"/>
				<path id="XMLID_2509_" class="st2" d="M437.1,1584.1V1517h49.7v11.3h-36.2v14.9h33.7v11.3h-33.7v18.3h37.5v11.3H437.1z"/>
				<path id="XMLID_2507_" class="st2" d="M607.8,1584.1v-55.7h-19.9V1517h53.3v11.3h-19.9v55.7H607.8z"/>
				<path id="XMLID_2505_" class="st2" d="M685.2,1584.1V1517h13.5v26.4h26.5V1517h13.5v67.1h-13.5v-29.3h-26.5v29.3H685.2z"/>
				<path id="XMLID_2503_" class="st2" d="M788,1584.1V1517h49.7v11.3h-36.2v14.9h33.7v11.3h-33.7v18.3H839v11.3H788z"/>
				<path id="XMLID_2501_" class="st2" d="M958.6,1584.1v-55.7h-19.9V1517h53.3v11.3h-19.9v55.7H958.6z"/>
				<path id="XMLID_2499_" class="st2" d="M1036,1584.1V1517h49.7v11.3h-36.2v14.9h33.7v11.3h-33.7v18.3h37.5v11.3H1036z"/>
				<path id="XMLID_2497_" class="st2" d="M1176.6,1559.4l13.1,4.2c-2,7.3-5.4,12.8-10,16.3c-4.7,3.6-10.6,5.3-17.8,5.3
					c-8.9,0-16.2-3-22-9.1c-5.7-6.1-8.6-14.4-8.6-25c0-11.2,2.9-19.8,8.6-26c5.8-6.2,13.3-9.3,22.7-9.3c8.2,0,14.9,2.4,20,7.3
					c3.1,2.9,5.3,7,6.9,12.4l-13.4,3.2c-0.8-3.5-2.4-6.2-5-8.2c-2.5-2-5.6-3-9.2-3c-5,0-9,1.8-12.1,5.4c-3.1,3.6-4.7,9.4-4.7,17.3
					c0,8.5,1.5,14.5,4.6,18.1c3,3.6,7,5.4,11.9,5.4c3.6,0,6.7-1.1,9.3-3.4C1173.6,1567.9,1175.4,1564.3,1176.6,1559.4z"/>
				<path id="XMLID_2495_" class="st2" d="M1236.5,1584.1V1517h13.5v26.4h26.5V1517h13.5v67.1h-13.5v-29.3h-26.5v29.3H1236.5z"/>
				<path id="XMLID_2493_" class="st2" d="M1339.5,1584.1V1517h13.2l27.5,44.8V1517h12.6v67.1h-13.6l-27.1-43.8v43.8H1339.5z"/>
				<path id="XMLID_2490_" class="st2" d="M1439.5,1551c0-6.8,1-12.6,3.1-17.2c1.5-3.4,3.6-6.5,6.2-9.2s5.5-4.7,8.7-6
					c4.2-1.8,9-2.7,14.5-2.7c9.9,0,17.8,3.1,23.7,9.2s8.9,14.7,8.9,25.6c0,10.8-2.9,19.3-8.8,25.4c-5.9,6.1-13.8,9.2-23.6,9.2
					c-10,0-17.9-3-23.8-9.1S1439.5,1561.6,1439.5,1551z M1453.4,1550.5c0,7.6,1.8,13.4,5.3,17.3c3.5,3.9,8,5.9,13.4,5.9
					c5.4,0,9.8-1.9,13.3-5.8c3.5-3.9,5.2-9.7,5.2-17.5c0-7.7-1.7-13.4-5.1-17.2c-3.4-3.8-7.8-5.7-13.4-5.7c-5.6,0-10.1,1.9-13.5,5.7
					C1455.1,1537,1453.4,1542.8,1453.4,1550.5z"/>
				<path id="XMLID_2488_" class="st2" d="M1550.6,1584.1v-66.5h13.5v55.2h33.7v11.3H1550.6z"/>
				<path id="XMLID_2485_" class="st2" d="M1639.9,1551c0-6.8,1-12.6,3.1-17.2c1.5-3.4,3.6-6.5,6.2-9.2s5.5-4.7,8.7-6
					c4.2-1.8,9-2.7,14.5-2.7c9.9,0,17.8,3.1,23.7,9.2c5.9,6.1,8.9,14.7,8.9,25.6c0,10.8-2.9,19.3-8.8,25.4
					c-5.9,6.1-13.8,9.2-23.6,9.2c-10,0-17.9-3-23.8-9.1S1639.9,1561.6,1639.9,1551z M1653.9,1550.5c0,7.6,1.8,13.4,5.3,17.3
					c3.5,3.9,8,5.9,13.4,5.9c5.4,0,9.8-1.9,13.3-5.8c3.5-3.9,5.2-9.7,5.2-17.5c0-7.7-1.7-13.4-5.1-17.2c-3.4-3.8-7.8-5.7-13.4-5.7
					c-5.6,0-10.1,1.9-13.5,5.7C1655.6,1537,1653.9,1542.8,1653.9,1550.5z"/>
				<path id="XMLID_2483_" class="st2" d="M1782,1559.4v-11.3h29.2v26.7c-2.8,2.7-7,5.2-12.3,7.3c-5.4,2.1-10.8,3.1-16.4,3.1
					c-7,0-13.1-1.5-18.4-4.4c-5.2-2.9-9.1-7.2-11.8-12.6c-2.6-5.5-3.9-11.4-3.9-17.9c0-7,1.5-13.2,4.4-18.6
					c2.9-5.4,7.2-9.6,12.9-12.5c4.3-2.2,9.7-3.3,16.1-3.3c8.3,0,14.8,1.7,19.5,5.2c4.7,3.5,7.7,8.3,9,14.5l-13.5,2.5
					c-0.9-3.3-2.7-5.9-5.3-7.8c-2.6-1.9-5.9-2.9-9.8-2.9c-5.9,0-10.6,1.9-14.1,5.6c-3.5,3.8-5.2,9.3-5.2,16.7c0,8,1.8,13.9,5.3,17.9
					c3.5,4,8.2,6,13.9,6c2.8,0,5.7-0.6,8.5-1.7c2.9-1.1,5.3-2.5,7.3-4.1v-8.5H1782z"/>
				<path id="XMLID_2481_" class="st2" d="M1876.4,1584.1v-28.2l-24.6-38.9h15.9l15.8,26.5l15.5-26.5h15.6l-24.7,38.9v28.1H1876.4z"
					/>
			</g>
		</g>
	</g>
</g>
<g id="Layer_4" class="st0">
	<g id="XMLID_2545_" class="st1">
		<g id="XMLID_2608_">
			<path id="XMLID_2611_" class="st2" d="M301.4,869.9h-66.5v58.2h59.2c36.3,0,65.7,29.4,65.7,65.7v207.9H418V986.5
				C418,922.1,365.8,869.9,301.4,869.9z"/>
			<path id="XMLID_2610_" class="st2" d="M217.2,1080.1V926.3H159v158.9c0,64.4,52.2,116.6,116.6,116.6h5.1v-58.2h0
				C245.6,1143.5,217.2,1115.1,217.2,1080.1z"/>
			<polygon id="XMLID_2609_" class="st3" points="159,798.3 159,870.1 87.2,870.1 87.2,928.3 159,928.3 159,928.3 217.2,928.3 
				217.2,928.3 217.2,870.1 217.2,798.3 			"/>
		</g>
		<g id="XMLID_2546_">
			<g id="XMLID_2586_">
				<path id="XMLID_2606_" class="st2" d="M662.4,901.7h-65.6v202.5h-32.8V901.7h-65.6v-31.8h164V901.7z"/>
				<path id="XMLID_2603_" class="st2" d="M646.5,977.5c7.5-13.3,17.7-23.8,30.8-31.6c13.1-7.8,27.4-11.7,43-11.7
					c14.5,0,28.3,3.4,41.3,10.2c13.1,6.8,23.7,16.5,32,29.1c8.3,12.6,12.6,27.3,13.1,44c0,5.6-0.3,10.6-1,15.1H670.4
					c1.3,12.5,6.6,22.7,15.9,30.6c9.3,7.9,20.6,11.9,34,11.9c16.5,0,29.9-5.6,40.2-16.7l39.2,0.3c-7.4,14.5-18.1,26.2-32.1,35
					c-14.1,8.8-29.5,13.2-46.2,13.2c-15.9,0-30.4-3.8-43.5-11.5c-13.2-7.7-23.6-18.1-31.1-31.3c-7.6-13.2-11.4-27.6-11.4-43.2
					C635.3,1005.3,639,990.8,646.5,977.5z M771.5,1005.8c-3.1-11.6-9.3-21.1-18.6-28.6c-9.3-7.5-19.8-11.2-31.6-11.2
					c-12.7,0-23.6,3.7-32.6,11c-9,7.4-15.1,17-18.2,28.8H771.5z"/>
				<path id="XMLID_2601_" class="st2" d="M866.4,1095.4c-13.3-7.7-23.8-18.2-31.5-31.5c-7.7-13.3-11.5-27.7-11.5-43.4
					c0-15.6,3.8-30.1,11.5-43.4c7.7-13.3,18.2-23.8,31.5-31.5c13.3-7.7,27.7-11.5,43.4-11.5c18.1,0,34.4,5.1,48.9,15.4
					c14.5,10.3,24.8,23.5,30.8,39.8h-35.2c-4.9-7.1-11.2-12.8-18.7-17.1c-7.6-4.2-16.1-6.4-25.4-6.4c-10,0-19.2,2.4-27.5,7.2
					c-8.3,4.8-14.7,11.4-19.4,19.8c-4.7,8.4-7,17.6-7,27.6c0,10,2.4,19.3,7.2,27.6c4.8,8.4,11.3,15,19.4,19.8
					c8.1,4.8,17.2,7.2,27.3,7.2c9.1,0,17.5-2,24.9-6c7.5-4,13.7-9.6,18.6-16.7h35.8c-6,16.3-16.3,29.5-30.8,39.5
					c-14.5,10-30.8,15.1-48.9,15.1C894.1,1106.9,879.7,1103.1,866.4,1095.4z"/>
				<path id="XMLID_2599_" class="st2" d="M1135.4,954.8c13.4,13.7,20.1,34.2,20.1,61.4v88h-32.8v-88c0-16.7-3.5-29.3-10.5-37.7
					c-7-8.4-17.1-12.6-30.3-12.6c-13.2,0-23.3,4.1-30.3,12.4c-7,8.3-10.5,20.6-10.5,37.2v88.7h-32.8V869.9h32.8v82
					c5.1-6.5,11-11,17.7-13.7c6.7-2.7,14.4-4,23.1-4C1104.2,934.2,1122,941,1135.4,954.8z"/>
				<path id="XMLID_2596_" class="st2" d="M1303.6,945.7c13.3,7.7,23.8,18.2,31.5,31.5c7.7,13.3,11.6,27.7,11.6,43.4
					c0,15.6-3.9,30.1-11.6,43.4c-7.7,13.3-18.2,23.8-31.5,31.5c-13.3,7.7-27.7,11.5-43.4,11.5c-15.6,0-30.1-3.8-43.4-11.5
					c-13.3-7.7-23.8-18.2-31.5-31.5c-7.7-13.3-11.5-27.7-11.5-43.4c0-15.6,3.8-30.1,11.5-43.4c7.7-13.3,18.2-23.8,31.5-31.5
					c13.3-7.7,27.7-11.5,43.4-11.5C1275.9,934.2,1290.4,938,1303.6,945.7z M1233.2,973.2c-8.3,4.8-14.7,11.4-19.4,19.8
					c-4.7,8.4-7,17.6-7,27.6c0,10,2.4,19.3,7.2,27.6c4.8,8.4,11.3,15,19.4,19.8c8.1,4.8,17.2,7.2,27.3,7.2c10,0,19.1-2.4,27.1-7.2
					c8-4.8,14.4-11.4,19.1-19.8c4.7-8.4,7-17.6,7-27.6c0-10-2.3-19.2-6.9-27.6c-4.6-8.4-10.9-14.9-19.1-19.8
					c-8.1-4.8-17.2-7.2-27.3-7.2C1250.6,966,1241.4,968.4,1233.2,973.2z"/>
				<path id="XMLID_2594_" class="st2" d="M1365.1,1016.9c0-26.8,6.4-46.9,19.3-60.4c12.8-13.5,29.8-20.3,51.1-20.3h3.3V968h-3.3
					c-12.1,0-21.3,4-27.8,12.1c-6.5,8-9.7,20.3-9.7,36.8v87.4h-32.8V1016.9z"/>
				<path id="XMLID_2592_" class="st2" d="M1481.8,1100.7c-9.9-4.1-17.9-10.2-23.9-18.2c-6-8-9-17.5-9-28.5h31.5
					c0,7.1,3.3,12.8,9.9,17.1c6.6,4.2,14.9,6.4,24.9,6.4c10.3,0,18.2-2,23.8-6c5.6-4,8.4-9.4,8.4-16.1c0-7.4-3.1-12.6-9.4-15.7
					c-6.3-3.1-16-6.1-29.1-9c-12.1-2.7-21.9-5.4-29.5-8.2c-7.6-2.8-14.1-7.5-19.6-14.1c-5.5-6.6-8.2-15.6-8.2-27
					c0-9.1,2.7-17.3,8.2-24.4c5.5-7.1,12.9-12.7,22.4-16.7c9.5-4,19.9-6,31.3-6c17.9,0,32.5,4.5,44,13.4
					c11.5,8.9,17.2,21.2,17.2,36.8h-31.5c0-6.2-3-11.3-8.9-15.2c-5.9-3.9-13.1-5.9-21.6-5.9c-8.3,0-15.1,1.9-20.4,5.7
					c-5.4,3.8-8,8.7-8,14.7c0,6.3,2.9,10.8,8.7,13.6c5.8,2.8,14.9,5.6,27.5,8.5c12.3,2.7,22.4,5.5,30.5,8.4
					c8,2.9,14.9,7.8,20.6,14.6c5.7,6.8,8.5,16.1,8.5,28c0,16.3-6.1,28.7-18.2,37.3c-12.2,8.6-28,12.9-47.4,12.9
					C1502.6,1106.9,1491.7,1104.9,1481.8,1100.7z"/>
				<path id="XMLID_2589_" class="st2" d="M1606.3,977.5c7.5-13.3,17.7-23.8,30.8-31.6c13.1-7.8,27.4-11.7,43-11.7
					c14.5,0,28.3,3.4,41.3,10.2c13.1,6.8,23.7,16.5,32,29.1c8.3,12.6,12.6,27.3,13.1,44c0,5.6-0.3,10.6-1,15.1h-135.3
					c1.3,12.5,6.6,22.7,15.9,30.6c9.3,7.9,20.6,11.9,34,11.9c16.5,0,29.9-5.6,40.2-16.7l39.2,0.3c-7.4,14.5-18.1,26.2-32.1,35
					c-14.1,8.8-29.5,13.2-46.2,13.2c-15.9,0-30.4-3.8-43.5-11.5c-13.2-7.7-23.6-18.1-31.1-31.3c-7.6-13.2-11.4-27.6-11.4-43.2
					C1595.1,1005.3,1598.8,990.8,1606.3,977.5z M1731.3,1005.8c-3.1-11.6-9.3-21.1-18.6-28.6c-9.3-7.5-19.8-11.2-31.6-11.2
					c-12.7,0-23.6,3.7-32.6,11c-9,7.4-15.1,17-18.2,28.8H1731.3z"/>
				<path id="XMLID_2587_" class="st2" d="M1814.5,1100.7c-9.9-4.1-17.9-10.2-23.9-18.2s-9-17.5-9-28.5h31.5
					c0,7.1,3.3,12.8,9.9,17.1c6.6,4.2,14.9,6.4,24.9,6.4c10.3,0,18.2-2,23.8-6c5.6-4,8.4-9.4,8.4-16.1c0-7.4-3.1-12.6-9.4-15.7
					c-6.3-3.1-16-6.1-29.1-9c-12.1-2.7-21.9-5.4-29.5-8.2c-7.6-2.8-14.1-7.5-19.6-14.1c-5.5-6.6-8.2-15.6-8.2-27
					c0-9.1,2.7-17.3,8.2-24.4c5.5-7.1,12.9-12.7,22.4-16.7c9.5-4,19.9-6,31.3-6c17.9,0,32.5,4.5,44,13.4
					c11.5,8.9,17.2,21.2,17.2,36.8H1876c0-6.2-3-11.3-8.9-15.2c-5.9-3.9-13.1-5.9-21.6-5.9c-8.3,0-15.1,1.9-20.4,5.7
					c-5.4,3.8-8,8.7-8,14.7c0,6.3,2.9,10.8,8.7,13.6c5.8,2.8,14.9,5.6,27.5,8.5c12.3,2.7,22.4,5.5,30.5,8.4
					c8,2.9,14.9,7.8,20.6,14.6c5.7,6.8,8.5,16.1,8.5,28c0,16.3-6.1,28.7-18.2,37.3c-12.2,8.6-28,12.9-47.4,12.9
					C1835.3,1106.9,1824.5,1104.9,1814.5,1100.7z"/>
			</g>
			<g id="XMLID_2547_">
				<path id="XMLID_2583_" class="st2" d="M563.9,1195.1v-51.9h22c5.5,0,9.6,0.5,12.1,1.4c2.5,0.9,4.5,2.6,6,5
					c1.5,2.4,2.3,5.1,2.3,8.2c0,3.9-1.1,7.1-3.4,9.6c-2.3,2.5-5.7,4.1-10.3,4.8c2.3,1.3,4.1,2.8,5.6,4.4c1.5,1.6,3.5,4.4,6,8.4
					l6.3,10.1h-12.5l-7.6-11.3c-2.7-4-4.5-6.6-5.5-7.6c-1-1.1-2-1.8-3.2-2.2s-2.9-0.6-5.3-0.6h-2.1v21.7H563.9z M574.4,1165.2h7.7
					c5,0,8.2-0.2,9.4-0.6c1.3-0.4,2.2-1.2,2.9-2.2c0.7-1,1.1-2.3,1.1-3.9c0-1.7-0.5-3.2-1.4-4.2c-0.9-1.1-2.2-1.8-3.9-2
					c-0.8-0.1-3.4-0.2-7.6-0.2h-8.2V1165.2z"/>
				<path id="XMLID_2581_" class="st2" d="M643.1,1195.1v-51.9h10.5v51.9H643.1z"/>
				<path id="XMLID_2578_" class="st2" d="M690.7,1143.2h19.1c4.3,0,7.6,0.3,9.9,1c3,0.9,5.7,2.5,7.8,4.8c2.2,2.3,3.8,5.1,5,8.4
					s1.7,7.4,1.7,12.3c0,4.3-0.5,8-1.6,11c-1.3,3.8-3.2,6.8-5.6,9.2c-1.8,1.8-4.3,3.2-7.4,4.1c-2.3,0.7-5.4,1.1-9.3,1.1h-19.7
					V1143.2z M701.2,1152v34.4h7.8c2.9,0,5-0.2,6.3-0.5c1.7-0.4,3.1-1.1,4.2-2.2c1.1-1,2-2.7,2.7-5c0.7-2.3,1.1-5.5,1.1-9.5
					c0-4-0.4-7.1-1.1-9.2c-0.7-2.1-1.7-3.8-3-5c-1.3-1.2-2.9-2-4.8-2.4c-1.5-0.3-4.3-0.5-8.6-0.5H701.2z"/>
				<path id="XMLID_2576_" class="st2" d="M770.3,1195.1v-51.9h38.5v8.8h-28v11.5h26v8.7h-26v14.1h29v8.7H770.3z"/>
				<path id="XMLID_2574_" class="st2" d="M902.3,1195.1V1152h-15.4v-8.8h41.2v8.8h-15.4v43.1H902.3z"/>
				<path id="XMLID_2572_" class="st2" d="M962.1,1195.1v-51.9h10.5v20.4h20.5v-20.4h10.5v51.9h-10.5v-22.7h-20.5v22.7H962.1z"/>
				<path id="XMLID_2570_" class="st2" d="M1041.6,1195.1v-51.9h38.5v8.8h-28v11.5h26v8.7h-26v14.1h29v8.7H1041.6z"/>
				<path id="XMLID_2568_" class="st2" d="M1173.6,1195.1V1152h-15.4v-8.8h41.2v8.8h-15.4v43.1H1173.6z"/>
				<path id="XMLID_2566_" class="st2" d="M1233.4,1195.1v-51.9h38.5v8.8h-28v11.5h26v8.7h-26v14.1h29v8.7H1233.4z"/>
				<path id="XMLID_2564_" class="st2" d="M1342.1,1176l10.2,3.2c-1.6,5.7-4.1,9.9-7.8,12.6c-3.6,2.7-8.2,4.1-13.8,4.1
					c-6.9,0-12.5-2.4-17-7.1c-4.4-4.7-6.7-11.1-6.7-19.3c0-8.6,2.2-15.3,6.7-20.1s10.3-7.2,17.6-7.2c6.4,0,11.5,1.9,15.5,5.6
					c2.4,2.2,4.1,5.4,5.3,9.6l-10.4,2.5c-0.6-2.7-1.9-4.8-3.8-6.4c-1.9-1.6-4.3-2.3-7.1-2.3c-3.8,0-7,1.4-9.4,4.1
					c-2.4,2.8-3.6,7.2-3.6,13.4c0,6.6,1.2,11.2,3.5,14c2.4,2.8,5.4,4.2,9.2,4.2c2.8,0,5.2-0.9,7.2-2.7
					C1339.8,1182.6,1341.2,1179.8,1342.1,1176z"/>
				<path id="XMLID_2562_" class="st2" d="M1388.5,1195.1v-51.9h10.5v20.4h20.5v-20.4h10.5v51.9h-10.5v-22.7h-20.5v22.7H1388.5z"/>
				<path id="XMLID_2560_" class="st2" d="M1468.1,1195.1v-51.9h10.2l21.2,34.6v-34.6h9.7v51.9h-10.5l-20.9-33.8v33.8H1468.1z"/>
				<path id="XMLID_2557_" class="st2" d="M1545.4,1169.5c0-5.3,0.8-9.7,2.4-13.3c1.2-2.6,2.8-5,4.8-7.1c2-2.1,4.3-3.7,6.7-4.7
					c3.2-1.4,7-2.1,11.2-2.1c7.6,0,13.8,2.4,18.3,7.1c4.6,4.7,6.9,11.3,6.9,19.8c0,8.4-2.3,14.9-6.8,19.7
					c-4.6,4.7-10.6,7.1-18.3,7.1c-7.7,0-13.8-2.4-18.4-7.1C1547.6,1184.2,1545.4,1177.7,1545.4,1169.5z M1556.2,1169.1
					c0,5.9,1.4,10.3,4.1,13.4c2.7,3,6.2,4.5,10.3,4.5c4.2,0,7.6-1.5,10.3-4.5c2.7-3,4-7.5,4-13.5c0-5.9-1.3-10.4-3.9-13.3
					s-6.1-4.4-10.4-4.4c-4.3,0-7.8,1.5-10.4,4.4C1557.5,1158.7,1556.2,1163.1,1556.2,1169.1z"/>
				<path id="XMLID_2555_" class="st2" d="M1631.3,1195.1v-51.5h10.5v42.7h26v8.7H1631.3z"/>
				<path id="XMLID_2552_" class="st2" d="M1700.4,1169.5c0-5.3,0.8-9.7,2.4-13.3c1.2-2.6,2.8-5,4.8-7.1c2-2.1,4.3-3.7,6.7-4.7
					c3.2-1.4,7-2.1,11.2-2.1c7.6,0,13.8,2.4,18.3,7.1c4.6,4.7,6.9,11.3,6.9,19.8c0,8.4-2.3,14.9-6.8,19.7
					c-4.6,4.7-10.6,7.1-18.3,7.1c-7.7,0-13.8-2.4-18.4-7.1C1702.7,1184.2,1700.4,1177.7,1700.4,1169.5z M1711.2,1169.1
					c0,5.9,1.4,10.3,4.1,13.4c2.7,3,6.2,4.5,10.3,4.5c4.2,0,7.6-1.5,10.3-4.5c2.7-3,4-7.5,4-13.5c0-5.9-1.3-10.4-3.9-13.3
					s-6.1-4.4-10.4-4.4c-4.3,0-7.8,1.5-10.4,4.4C1712.5,1158.7,1711.2,1163.1,1711.2,1169.1z"/>
				<path id="XMLID_2550_" class="st2" d="M1810.2,1176v-8.7h22.6v20.7c-2.2,2.1-5.4,4-9.5,5.6s-8.4,2.4-12.7,2.4
					c-5.4,0-10.2-1.1-14.2-3.4s-7.1-5.5-9.1-9.8c-2-4.2-3-8.8-3-13.8c0-5.4,1.1-10.2,3.4-14.4c2.3-4.2,5.6-7.4,9.9-9.7
					c3.3-1.7,7.5-2.6,12.4-2.6c6.4,0,11.5,1.4,15.1,4.1c3.6,2.7,5.9,6.4,7,11.2l-10.4,1.9c-0.7-2.5-2.1-4.6-4.1-6
					c-2-1.5-4.5-2.2-7.6-2.2c-4.6,0-8.2,1.5-10.9,4.4c-2.7,2.9-4.1,7.2-4.1,12.9c0,6.2,1.4,10.8,4.1,13.9s6.3,4.6,10.8,4.6
					c2.2,0,4.4-0.4,6.6-1.3c2.2-0.9,4.1-1.9,5.7-3.1v-6.6H1810.2z"/>
				<path id="XMLID_2548_" class="st2" d="M1883.3,1195.1v-21.8l-19-30h12.3l12.2,20.5l12-20.5h12.1l-19.1,30.1v21.8H1883.3z"/>
			</g>
		</g>
	</g>
</g>
<g id="Layer_3" class="st0">
	<g id="XMLID_2638_" class="st1">
		<g id="XMLID_2643_">
			<path id="XMLID_2663_" class="st2" d="M606.1,941.4h-68.5V1153h-34.3V941.4h-68.5v-33.2h171.4V941.4z"/>
			<path id="XMLID_2660_" class="st2" d="M589.5,1020.6c7.8-13.9,18.5-24.9,32.2-33c13.6-8.2,28.6-12.2,44.9-12.2
				c15.2,0,29.5,3.6,43.2,10.7c13.6,7.1,24.8,17.3,33.4,30.4c8.6,13.2,13.2,28.5,13.6,46c0,5.8-0.3,11.1-1,15.7H614.5
				c1.4,13.1,6.9,23.7,16.6,32c9.7,8.3,21.5,12.4,35.5,12.4c17.2,0,31.2-5.8,42-17.5l40.9,0.3c-7.7,15.2-18.9,27.3-33.6,36.5
				c-14.7,9.2-30.8,13.8-48.3,13.8c-16.6,0-31.7-4-45.5-12.1c-13.8-8-24.6-18.9-32.5-32.7c-7.9-13.8-11.9-28.8-11.9-45.1
				C577.8,1049.6,581.7,1034.5,589.5,1020.6z M720.1,1050.2c-3.3-12.1-9.7-22.1-19.4-29.9c-9.7-7.8-20.7-11.7-33-11.7
				c-13.3,0-24.7,3.8-34.1,11.5c-9.4,7.7-15.8,17.7-19.1,30.1H720.1z"/>
			<path id="XMLID_2658_" class="st2" d="M819.3,1143.7c-13.9-8-24.8-19-32.9-32.9c-8-13.9-12.1-29-12.1-45.3
				c0-16.3,4-31.4,12.1-45.3c8-13.9,19-24.8,32.9-32.9c13.9-8,29-12.1,45.3-12.1c18.9,0,35.9,5.4,51.1,16.1
				c15.2,10.7,25.9,24.6,32.2,41.6h-36.7c-5.1-7.5-11.7-13.4-19.6-17.8c-7.9-4.4-16.8-6.6-26.6-6.6c-10.5,0-20.1,2.5-28.7,7.5
				c-8.6,5-15.4,11.9-20.3,20.6c-4.9,8.7-7.3,18.4-7.3,28.9c0,10.5,2.5,20.1,7.5,28.9c5,8.7,11.8,15.6,20.3,20.6
				c8.5,5,18,7.5,28.5,7.5c9.6,0,18.2-2.1,26.1-6.3c7.8-4.2,14.3-10,19.4-17.5h37.4c-6.3,17-17,30.8-32.2,41.3
				c-15.2,10.5-32.2,15.7-51.1,15.7C848.2,1155.8,833.1,1151.8,819.3,1143.7z"/>
			<path id="XMLID_2656_" class="st2" d="M1100.2,996.8c14,14.3,21,35.7,21,64.2v92H1087v-92c0-17.5-3.7-30.6-11-39.3
				c-7.3-8.7-17.9-13.1-31.6-13.1c-13.8,0-24.3,4.3-31.6,12.9c-7.3,8.6-11,21.6-11,38.8v92.7h-34.3V908.2h34.3v85.7
				c5.4-6.8,11.5-11.5,18.5-14.3c7-2.8,15-4.2,24.1-4.2C1067.6,975.3,1086.3,982.5,1100.2,996.8z"/>
			<path id="XMLID_2653_" class="st2" d="M1276,987.4c13.9,8,24.8,19,32.9,32.9c8,13.9,12.1,29,12.1,45.3c0,16.3-4,31.4-12.1,45.3
				c-8,13.9-19,24.8-32.9,32.9c-13.9,8-29,12.1-45.3,12.1c-16.3,0-31.4-4-45.3-12.1c-13.9-8-24.8-19-32.9-32.9
				c-8-13.9-12.1-29-12.1-45.3c0-16.3,4-31.4,12.1-45.3c8-13.9,19-24.8,32.9-32.9c13.9-8,29-12.1,45.3-12.1
				C1247,975.3,1262.1,979.3,1276,987.4z M1202.4,1016.1c-8.6,5-15.4,11.9-20.3,20.6c-4.9,8.7-7.3,18.4-7.3,28.9
				c0,10.5,2.5,20.1,7.5,28.9c5,8.7,11.8,15.6,20.3,20.6c8.5,5,18,7.5,28.5,7.5c10.5,0,19.9-2.5,28.3-7.5c8.4-5,15-11.9,19.9-20.6
				s7.3-18.4,7.3-28.9c0-10.5-2.4-20.1-7.2-28.9c-4.8-8.7-11.4-15.6-19.9-20.6c-8.5-5-18-7.5-28.5-7.5
				C1220.5,1008.5,1211,1011.1,1202.4,1016.1z"/>
			<path id="XMLID_2651_" class="st2" d="M1340.1,1061.7c0-28,6.7-49,20.1-63.1c13.4-14.1,31.2-21.2,53.3-21.2h3.5v33.2h-3.5
				c-12.6,0-22.3,4.2-29,12.6c-6.8,8.4-10.1,21.2-10.1,38.5v91.3h-34.3V1061.7z"/>
			<path id="XMLID_2649_" class="st2" d="M1462,1149.3c-10.4-4.3-18.7-10.7-25-19.1c-6.3-8.4-9.4-18.3-9.4-29.7h32.9
				c0,7.5,3.4,13.4,10.3,17.8c6.9,4.4,15.6,6.6,26.1,6.6c10.7,0,19-2.1,24.8-6.3c5.8-4.2,8.7-9.8,8.7-16.8c0-7.7-3.3-13.2-9.8-16.4
				c-6.5-3.3-16.7-6.4-30.4-9.4c-12.6-2.8-22.9-5.6-30.8-8.6c-7.9-2.9-14.7-7.8-20.5-14.7c-5.7-6.9-8.6-16.3-8.6-28.2
				c0-9.6,2.9-18.1,8.6-25.5c5.7-7.5,13.5-13.3,23.4-17.5c9.9-4.2,20.8-6.3,32.7-6.3c18.6,0,34,4.7,46,14c12,9.3,18,22.2,18,38.5
				h-32.9c0-6.5-3.1-11.8-9.3-15.9c-6.2-4.1-13.7-6.1-22.6-6.1c-8.6,0-15.7,2-21.3,5.9c-5.6,4-8.4,9.1-8.4,15.4
				c0,6.5,3,11.3,9.1,14.2c6.1,2.9,15.6,5.9,28.7,8.9c12.8,2.8,23.4,5.7,31.8,8.7c8.4,3,15.6,8.1,21.5,15.2
				c5.9,7.1,8.9,16.8,8.9,29.2c0,17-6.4,30-19.1,39c-12.7,9-29.2,13.5-49.5,13.5C1483.8,1155.8,1472.4,1153.6,1462,1149.3z"/>
			<path id="XMLID_2646_" class="st2" d="M1592.1,1020.6c7.8-13.9,18.5-24.9,32.2-33c13.6-8.2,28.6-12.2,44.9-12.2
				c15.2,0,29.5,3.6,43.2,10.7c13.6,7.1,24.8,17.3,33.4,30.4c8.6,13.2,13.2,28.5,13.6,46c0,5.8-0.3,11.1-1,15.7h-141.3
				c1.4,13.1,6.9,23.7,16.6,32c9.7,8.3,21.5,12.4,35.5,12.4c17.2,0,31.2-5.8,42-17.5l40.9,0.3c-7.7,15.2-18.9,27.3-33.6,36.5
				c-14.7,9.2-30.8,13.8-48.3,13.8c-16.6,0-31.7-4-45.5-12.1c-13.8-8-24.6-18.9-32.5-32.7c-7.9-13.8-11.9-28.8-11.9-45.1
				C1580.4,1049.6,1584.3,1034.5,1592.1,1020.6z M1722.7,1050.2c-3.3-12.1-9.7-22.1-19.4-29.9c-9.7-7.8-20.7-11.7-33-11.7
				c-13.3,0-24.7,3.8-34.1,11.5c-9.4,7.7-15.8,17.7-19.1,30.1H1722.7z"/>
			<path id="XMLID_2644_" class="st2" d="M1809.6,1149.3c-10.4-4.3-18.7-10.7-25-19.1c-6.3-8.4-9.4-18.3-9.4-29.7h32.9
				c0,7.5,3.4,13.4,10.3,17.8c6.9,4.4,15.6,6.6,26.1,6.6c10.7,0,19-2.1,24.8-6.3c5.8-4.2,8.7-9.8,8.7-16.8c0-7.7-3.3-13.2-9.8-16.4
				c-6.5-3.3-16.7-6.4-30.4-9.4c-12.6-2.8-22.9-5.6-30.8-8.6c-7.9-2.9-14.7-7.8-20.5-14.7c-5.7-6.9-8.6-16.3-8.6-28.2
				c0-9.6,2.9-18.1,8.6-25.5c5.7-7.5,13.5-13.3,23.4-17.5c9.9-4.2,20.8-6.3,32.7-6.3c18.6,0,34,4.7,46,14c12,9.3,18,22.2,18,38.5
				h-32.9c0-6.5-3.1-11.8-9.3-15.9c-6.2-4.1-13.7-6.1-22.6-6.1c-8.6,0-15.7,2-21.3,5.9c-5.6,4-8.4,9.1-8.4,15.4
				c0,6.5,3,11.3,9.1,14.2c6.1,2.9,15.6,5.9,28.7,8.9c12.8,2.8,23.4,5.7,31.8,8.7c8.4,3,15.6,8.1,21.5,15.2
				c5.9,7.1,8.9,16.8,8.9,29.2c0,17-6.4,30-19.1,39c-12.7,9-29.2,13.5-49.5,13.5C1831.4,1155.8,1820,1153.6,1809.6,1149.3z"/>
		</g>
		<g id="XMLID_2639_">
			<path id="XMLID_2642_" class="st2" d="M268,890.2h-56.3v49.3h50.1c30.7,0,55.6,24.9,55.6,55.6v176.1h49.3V988.9
				C366.7,934.4,322.5,890.2,268,890.2z"/>
			<path id="XMLID_2641_" class="st2" d="M196.7,1068.2V937.9h-49.3v134.6c0,54.5,44.2,98.8,98.8,98.8h4.3v-49.3h0
				C220.7,1121.9,196.7,1097.9,196.7,1068.2z"/>
			<polygon id="XMLID_2640_" class="st3" points="147.4,829.5 147.4,890.3 86.5,890.3 86.5,939.6 147.4,939.6 147.4,939.6 
				196.7,939.6 196.7,939.6 196.7,890.3 196.7,829.5 			"/>
		</g>
	</g>
</g>
<g id="Layer_2">
	<g id="XMLID_2612_">
		<path id="XMLID_2615_" class="st2" d="M1220.2,411.8H919.5v263.3h267.7c164.1,0,297.1,133,297.1,297.1v940.7h263.3V939.2
			C1747.6,647.9,1511.5,411.8,1220.2,411.8z"/>
		<path id="XMLID_2614_" class="st2" d="M839.4,1362.5V666.7H576.1v718.7c0,291.3,236.1,527.4,527.4,527.4h22.9v-263.3h0
			C967.9,1649.6,839.4,1521.1,839.4,1362.5z"/>
		<polygon id="XMLID_2613_" class="st3" points="576.1,87.7 576.1,412.5 251.2,412.5 251.2,675.8 576.1,675.8 576.1,675.9 
			839.4,675.9 839.4,675.8 839.4,412.5 839.4,87.7 		"/>
	</g>
</g>
</svg>
